<svg xml:space="preserve" style="enable-background:new 0 0 1052 272;" viewBox="0 0 1052 272" y="0px" x="0px" xmlns:xlink="http://www.w3.org/1999/xlink" xmlns="http://www.w3.org/2000/svg" id="Layer_1" version="1.1">
<style type="text/css">
	.st0{fill:#FF9693;}
</style>
<g>
	<g id="Layer_1_00000005265487963236451180000004931063294925477817_">
		<path d="M908.7,271.4c-18.9,0-35.5-3.1-50.1-9.2c-14.3-6.4-25.4-15.4-33.3-26.9c-7.9-11.5-11.8-24.9-11.8-40
			s5.2-29.4,15.7-41.1c10.7-11.8,25.6-20,44.7-24.6v-1.5c-16.1-4.9-28.5-12.4-37.5-22.7c-8.7-10.3-13-22.6-13-36.9
			s3.4-23.2,10.3-33.5c6.9-10.5,16.8-18.8,29.8-25s28-9.2,45.1-9.2s32,3.1,44.7,9.2c13,6.2,22.9,14.5,29.8,25
			c6.9,10.3,10.3,21.4,10.3,33.5s-4.5,27-13.4,37.3c-8.7,10.3-21,17.7-37.1,22.3v1.5c19.4,4.6,34.3,12.8,44.7,24.6
			c10.7,11.8,16.1,25.5,16.1,41.1s-3.9,28.5-11.8,40c-7.9,11.5-19.1,20.5-33.6,26.9C944,268.4,927.5,271.4,908.7,271.4L908.7,271.4z
			 M908.7,245.2c11.2,0,21-2.2,29.4-6.5c8.7-4.4,15.3-10.4,19.9-18.1c4.8-7.7,7.3-16.4,7.3-26.1c0-15.4-5.2-27.8-15.7-37.3
			c-10.4-9.7-24.1-14.6-40.9-14.6s-21.1,2.2-29.8,6.5c-8.4,4.4-15,10.5-19.9,18.5c-4.6,7.7-6.9,16.7-6.9,26.9
			c0,14.9,5.2,27,15.7,36.5C878.2,240.5,891.9,245.2,908.7,245.2L908.7,245.2z M908.7,116.8c9.4,0,17.6-1.9,24.5-5.8
			c7.1-3.8,12.6-9.2,16.4-16.1c3.8-6.9,5.7-14.9,5.7-23.8c0-13.6-4.2-24.4-12.6-32.3c-8.4-7.9-19.7-11.9-34-11.9s-17.7,1.8-24.8,5.4
			c-6.9,3.6-12.2,8.7-16.1,15.4c-3.8,6.7-5.7,14.5-5.7,23.5c0,13.6,4.2,24.6,12.6,33.1c8.4,8.5,19.7,12.7,34,12.7L908.7,116.8z
			 M0,268.4c4.6-6.7,7.8-14.2,9.6-22.7c1.8-8.7,2.7-20.4,2.7-35V62c0-14.6-0.9-26.3-2.7-35C7.8,18.2,4.6,10.7,0,4.3V2.8h61.9v1.5
			c-4.6,6.4-7.8,14-9.6,22.7s-2.7,20.4-2.7,35v148.8c0,14.6,0.9,26.3,2.7,35c1.8,8.5,5,16,9.6,22.7v1.5H0v-1.5V268.4z M327.4,44.3
			v166.1c0,14.6,0.9,26.4,2.7,35.4c1.8,8.7,5,16.3,9.6,22.7v1.5h-53.5v-1.5c4.8-6.4,8-14,9.6-22.7c1.8-8.7,2.7-20.5,2.7-35.4V61.6
			c0-14.6-0.9-26.3-2.7-35c-1.5-8.7-4.7-16.1-9.6-22.3V2.8h65l88.7,220.7h1.5L528.5,2.7h62.7v1.5c-4.6,6.2-7.8,13.7-9.6,22.7
			c-1.5,8.7-2.3,20.3-2.3,34.6v148.8c0,14.9,0.8,26.7,2.3,35.4c1.8,8.7,5,16.3,9.6,22.7v1.5h-61.5v-1.5c4.8-6.4,8-14,9.6-22.7
			c1.8-8.7,2.7-20.5,2.7-35.4V44.6h-1.9l-88.3,225.3h-31.7L329.5,44.2h-1.9L327.4,44.3z M189.3,120.3l-15.7-6.5l-15.7,6.5l-6.5,15.7
			l6.5,15.7l15.7,6.5l15.7-6.5l6.5-15.7L189.3,120.3z M719.9,120.3l-15.7-6.5l-15.7,6.5L682,136l6.5,15.7l15.7,6.5l15.7-6.5
			l6.5-15.7L719.9,120.3z M1017.9,3.6c-3.5,1.9-6.2,4.7-8.1,8.1c-1.9,3.5-2.9,7.3-2.9,11.4s1,7.9,2.9,11.3c2,3.4,4.7,6,8.1,7.9
			c3.5,1.9,7.3,2.9,11.5,2.9s8-1,11.5-2.9s6.2-4.5,8.1-7.9s3-7.1,3-11.4s-1.1-7.9-3-11.4c-2-3.4-4.7-6.1-8.1-8
			c-3.5-1.9-7.3-2.9-11.5-2.9S1021.4,1.7,1017.9,3.6z M1038.5,7.4c2.7,1.5,4.9,3.7,6.4,6.4c1.5,2.8,2.3,5.8,2.3,9.2
			s-0.8,6.5-2.3,9.2s-3.7,4.9-6.4,6.4c-2.7,1.5-5.7,2.3-9.1,2.3s-6.4-0.8-9.1-2.3c-2.7-1.5-4.8-3.6-6.3-6.3s-2.3-5.7-2.3-9.2
			s0.8-6.5,2.3-9.3c1.5-2.7,3.6-4.9,6.3-6.4s5.7-2.4,9.1-2.4S1035.8,5.9,1038.5,7.4z M1037.3,12.8c-1.7-1.4-4.1-2.2-6.9-2.2h-9.4
			v24.7h4.8v-8.8h3.8l5.2,8.8h5.3l-5.9-9.7c1.7-0.4,3.1-1.3,4.2-2.6c1-1.2,1.5-2.7,1.5-4.5s-0.9-4.1-2.6-5.6V12.8z M1030.1,22.5
			h-4.4v-7.9h4.4c1.4,0,2.6,0.3,3.5,1c0.9,0.6,1.3,1.6,1.3,2.8s-0.5,2.4-1.4,3C1032.6,22.2,1031.4,22.5,1030.1,22.5z" class="st0"></path>
	</g>
</g>
</svg>
